Anónimas.ufo
<glyph name="B" format="2">
	<advance width="644"/>
	<unicode hex="0042"/>
	<outline>
		<contour>
			<point x="78" y="0" type="line"/>
			<point x="197" y="0" type="line"/>
			<point x="197" y="730" type="line"/>
			<point x="78" y="730" type="line"/>
		</contour>
		<contour>
			<point x="482" y="383" type="curve"/>
			<point x="482" y="398" type="line"/>
			<point x="550" y="398"/>
			<point x="589" y="453"/>
			<point x="589" y="541" type="curve" smooth="yes"/>
			<point x="589" y="676"/>
			<point x="522" y="730"/>
			<point x="350" y="730" type="curve" smooth="yes"/>
			<point x="153" y="730" type="line"/>
			<point x="153" y="609" type="line"/>
			<point x="460" y="609" type="line"/>
			<point x="460" y="524" type="line" smooth="yes"/>
			<point x="460" y="452"/>
			<point x="438" y="419"/>
			<point x="323" y="419" type="curve" smooth="yes"/>
			<point x="124" y="419" type="line"/>
			<point x="124" y="313" type="line"/>
			<point x="477" y="312" type="line"/>
			<point x="477" y="224" type="line" smooth="yes"/>
			<point x="477" y="157"/>
			<point x="455" y="121"/>
			<point x="343" y="121" type="curve" smooth="yes"/>
			<point x="144" y="121" type="line"/>
			<point x="144" y="0" type="line"/>
			<point x="366" y="0" type="line" smooth="yes"/>
			<point x="542" y="0"/>
			<point x="609" y="74"/>
			<point x="609" y="220" type="curve" smooth="yes"/>
			<point x="609" y="318"/>
			<point x="559" y="383"/>
		</contour>
	</outline>
</glyph>
<glyph name="C" format="2">
	<advance width="662"/>
	<unicode hex="0043"/>
	<outline>
		<contour>
			<point x="36" y="387" type="line"/>
			<point x="36" y="619"/>
			<point x="167" y="742"/>
			<point x="352" y="742" type="curve" smooth="yes"/>
			<point x="542" y="742"/>
			<point x="632" y="610"/>
			<point x="632" y="479" type="curve"/>
			<point x="457" y="479" type="line"/>
			<point x="457" y="619" type="line"/>
			<point x="299" y="619" type="line" smooth="yes"/>
			<point x="222" y="619"/>
			<point x="192" y="567"/>
			<point x="192" y="503" type="curve" smooth="yes"/>
			<point x="192" y="132" type="line"/>
			<point x="581" y="132" type="line"/>
			<point x="607" y="52" type="line"/>
			<point x="566" y="11"/>
			<point x="464" y="-10"/>
			<point x="378" y="-10" type="curve" smooth="yes"/>
			<point x="351" y="-10" type="line" smooth="yes"/>
			<point x="167" y="-10"/>
			<point x="36" y="111"/>
			<point x="36" y="342" type="curve"/>
		</contour>
	</outline>
</glyph>
<glyph name="E" format="2">
	<advance width="635"/>
	<unicode hex="0045"/>
	<outline>
		<contour>
			<point x="207" y="730" type="line"/>
			<point x="78" y="730" type="line"/>
			<point x="78" y="0" type="line"/>
			<point x="207" y="0" type="line"/>
		</contour>
		<contour>
			<point x="584" y="602" type="line"/>
			<point x="584" y="730" type="line"/>
			<point x="207" y="730" type="line"/>
			<point x="207" y="527" type="line"/>
			<point x="207" y="576"/>
			<point x="223" y="602"/>
			<point x="282" y="602" type="curve" smooth="yes"/>
		</contour>
		<contour>
			<point x="204" y="416" type="line"/>
			<point x="204" y="300" type="line"/>
			<point x="517" y="300" type="line"/>
			<point x="517" y="416" type="line"/>
		</contour>
		<contour>
			<point x="207" y="128" type="line"/>
			<point x="207" y="0" type="line"/>
			<point x="584" y="0" type="line"/>
			<point x="584" y="128" type="line"/>
		</contour>
	</outline>
</glyph>
<glyph name="F" format="2">
	<advance width="649"/>
	<unicode hex="0046"/>
	<outline>
		<contour>
			<point x="221" y="730" type="line"/>
			<point x="92" y="730" type="line"/>
			<point x="92" y="0" type="line"/>
			<point x="221" y="0" type="line"/>
		</contour>
		<contour>
			<point x="608" y="602" type="line"/>
			<point x="608" y="730" type="line"/>
			<point x="221" y="730" type="line"/>
			<point x="221" y="527" type="line"/>
			<point x="221" y="576"/>
			<point x="237" y="602"/>
			<point x="296" y="602" type="curve"/>
		</contour>
		<contour>
			<point x="218" y="396" type="line"/>
			<point x="218" y="280" type="line"/>
			<point x="541" y="280" type="line"/>
			<point x="541" y="396" type="line"/>
		</contour>
	</outline>
</glyph>
<glyph name="G" format="2">
	<advance width="708"/>
	<unicode hex="0047"/>
	<outline>
		<contour>
			<point x="52" y="363" type="curve"/>
			<point x="52" y="104"/>
			<point x="158" y="-13"/>
			<point x="339" y="-10" type="curve"/>
			<point x="451" y="-8"/>
			<point x="527" y="69"/>
			<point x="527" y="91" type="curve"/>
			<point x="606" y="89" type="line"/>
			<point x="527" y="222" type="line"/>
			<point x="527" y="159"/>
			<point x="499" y="128"/>
			<point x="401" y="128" type="curve"/>
			<point x="178" y="128" type="line"/>
			<point x="190" y="116" type="line"/>
			<point x="190" y="495" type="line"/>
			<point x="190" y="577"/>
			<point x="241" y="606"/>
			<point x="327" y="606" type="curve"/>
			<point x="535" y="607" type="line"/>
			<point x="523" y="619" type="line"/>
			<point x="523" y="522" type="line"/>
			<point x="652" y="522" type="line"/>
			<point x="652" y="653"/>
			<point x="520" y="730"/>
			<point x="400" y="730" type="curve"/>
			<point x="157" y="730"/>
			<point x="52" y="565"/>
		</contour>
		<contour>
			<point x="668" y="0" type="line"/>
			<point x="668" y="403" type="line"/>
			<point x="350" y="403" type="line"/>
			<point x="350" y="301" type="line"/>
			<point x="350" y="301"/>
			<point x="527" y="301"/>
			<point x="527" y="301" type="curve"/>
			<point x="527" y="301"/>
			<point x="527" y="159"/>
			<point x="527" y="159" type="curve"/>
			<point x="547" y="119" type="line"/>
			<point x="541" y="0" type="line"/>
		</contour>
	</outline>
</glyph>
<glyph name="H" format="2">
	<advance width="721"/>
	<unicode hex="0048"/>
	<outline>
		<contour>
			<point x="197" y="464" type="curve"/>
			<point x="197" y="303" type="line"/>
			<point x="469" y="303" type="line"/>
			<point x="505" y="303"/>
			<point x="524" y="285"/>
			<point x="524" y="255" type="curve"/>
			<point x="524" y="416" type="line"/>
			<point x="252" y="416" type="line"/>
			<point x="216" y="416"/>
			<point x="197" y="433"/>
		</contour>
		<contour>
			<point x="197" y="730" type="line"/>
			<point x="78" y="730" type="line"/>
			<point x="78" y="0" type="line"/>
			<point x="197" y="0" type="line"/>
		</contour>
		<contour>
			<point x="643" y="730" type="line"/>
			<point x="524" y="730" type="line"/>
			<point x="524" y="0" type="line"/>
			<point x="643" y="0" type="line"/>
		</contour>
	</outline>
</glyph>
<glyph name="I" format="2">
	<advance width="645"/>
	<unicode hex="0049"/>
	<outline>
		<contour>
			<point x="387" y="730" type="line"/>
			<point x="258" y="730" type="line"/>
			<point x="258" y="0" type="line"/>
			<point x="387" y="0" type="line"/>
		</contour>
		<contour>
			<point x="71" y="604" type="line"/>
			<point x="183" y="604" type="line" smooth="yes"/>
			<point x="242" y="604"/>
			<point x="258" y="578"/>
			<point x="258" y="529" type="curve"/>
			<point x="258" y="730" type="line"/>
			<point x="71" y="730" type="line"/>
		</contour>
		<contour>
			<point x="387" y="604" type="line"/>
			<point x="574" y="604" type="line"/>
			<point x="574" y="730" type="line"/>
			<point x="387" y="730" type="line"/>
		</contour>
		<contour>
			<point x="574" y="126" type="line"/>
			<point x="462" y="126" type="line" smooth="yes"/>
			<point x="403" y="126"/>
			<point x="387" y="152"/>
			<point x="387" y="201" type="curve"/>
			<point x="387" y="0" type="line"/>
			<point x="574" y="0" type="line"/>
		</contour>
		<contour>
			<point x="71" y="126" type="line"/>
			<point x="71" y="0" type="line"/>
			<point x="258" y="0" type="line"/>
			<point x="258" y="126" type="line"/>
		</contour>
	</outline>
</glyph>
<glyph name="L" format="2">
	<advance width="635"/>
	<unicode hex="004C"/>
	<outline>
		<contour>
			<point x="207" y="0" type="line"/>
			<point x="207" y="730" type="line"/>
			<point x="78" y="730" type="line"/>
			<point x="78" y="0" type="line"/>
		</contour>
		<contour>
			<point x="594" y="133" type="line"/>
			<point x="282" y="133" type="line" smooth="yes"/>
			<point x="223" y="133"/>
			<point x="207" y="159"/>
			<point x="207" y="208" type="curve" smooth="yes"/>
			<point x="207" y="0" type="line"/>
			<point x="594" y="0" type="line"/>
		</contour>
	</outline>
</glyph>
<glyph name="N" format="2">
	<advance width="779"/>
	<unicode hex="004E"/>
	<outline>
		<contour>
			<point x="548" y="0" type="curve"/>
			<point x="622" y="0" type="line"/>
			<point x="622" y="201" type="line"/>
			<point x="543" y="201" type="line"/>
			<point x="290" y="694" type="line"/>
			<point x="277" y="719"/>
			<point x="260" y="730"/>
			<point x="232" y="730" type="curve"/>
			<point x="125" y="730" type="line"/>
			<point x="125" y="529" type="line"/>
			<point x="237" y="529" type="line"/>
			<point x="490" y="36" type="line"/>
			<point x="503" y="11"/>
			<point x="520" y="0"/>
		</contour>
		<contour>
			<point x="92" y="0" type="line"/>
			<point x="221" y="0" type="line"/>
			<point x="221" y="730" type="line"/>
			<point x="92" y="730" type="line"/>
		</contour>
		<contour>
			<point x="558" y="0" type="line"/>
			<point x="687" y="0" type="line"/>
			<point x="687" y="730" type="line"/>
			<point x="558" y="730" type="line"/>
		</contour>
	</outline>
</glyph>
<glyph name="P" format="2">
	<advance width="653"/>
	<unicode hex="0050"/>
	<outline>
		<contour>
			<point x="197" y="0" type="line"/>
			<point x="197" y="498.99975" type="line"/>
			<point x="197" y="610" type="line"/>
			<point x="333" y="610" type="line"/>
			<point x="472" y="610" type="line"/>
			<point x="472" y="488" type="line" smooth="yes"/>
			<point x="472" y="396"/>
			<point x="450" y="360"/>
			<point x="333" y="360" type="curve" smooth="yes"/>
			<point x="179" y="360" type="line"/>
			<point x="179" y="242" type="line"/>
			<point x="334" y="242" type="line" smooth="yes"/>
			<point x="508" y="242"/>
			<point x="598" y="317"/>
			<point x="598" y="486" type="curve" smooth="yes"/>
			<point x="598" y="645"/>
			<point x="559" y="730"/>
			<point x="393" y="730" type="curve" smooth="yes"/>
			<point x="78" y="730" type="line"/>
			<point x="78" y="0" type="line"/>
		</contour>
	</outline>
</glyph>
<glyph name="T" format="2">
	<advance width="663"/>
	<unicode hex="0054"/>
	<outline>
		<contour>
			<point x="267" y="730" type="line"/>
			<point x="267" y="0" type="line"/>
			<point x="396" y="0" type="line"/>
			<point x="396" y="730" type="line"/>
		</contour>
		<contour>
			<point x="623" y="599" type="line"/>
			<point x="623" y="730" type="line"/>
			<point x="396" y="730" type="line"/>
			<point x="396" y="524" type="line"/>
			<point x="396" y="573"/>
			<point x="412" y="599"/>
			<point x="471" y="599" type="curve" smooth="yes"/>
		</contour>
		<contour>
			<point x="267" y="599" type="line"/>
			<point x="267" y="730" type="line"/>
			<point x="40" y="730" type="line"/>
			<point x="40" y="599" type="line"/>
		</contour>
	</outline>
</glyph>
<glyph name="U" format="2">
	<advance width="771"/>
	<unicode hex="0055"/>
	<outline>
		<contour>
			<point x="651" y="730" type="curve"/>
			<point x="535" y="730" type="line"/>
			<point x="537" y="195" type="line" smooth="yes"/>
			<point x="537" y="130"/>
			<point x="483" y="102"/>
			<point x="406" y="102" type="curve" smooth="yes"/>
			<point x="237" y="102" type="line"/>
			<point x="237" y="330"/>
			<point x="239" y="730"/>
			<point x="237" y="730" type="curve" smooth="yes"/>
			<point x="121" y="730" type="line"/>
			<point x="121" y="730"/>
			<point x="120" y="374"/>
			<point x="120" y="259" type="curve" smooth="yes"/>
			<point x="120" y="91"/>
			<point x="229" y="-10"/>
			<point x="389" y="-10" type="curve" smooth="yes"/>
			<point x="535" y="-10"/>
			<point x="650" y="85"/>
			<point x="650" y="253" type="curve" smooth="yes"/>
			<point x="650" y="372"/>
			<point x="651" y="730"/>
		</contour>
	</outline>
</glyph>
<glyph name="V" format="2">
	<advance width="630"/>
	<unicode hex="0056"/>
	<outline>
		<contour>
			<point x="15" y="730" type="line"/>
			<point x="206" y="0" type="line"/>
			<point x="423" y="0" type="line"/>
			<point x="615" y="730" type="line"/>
			<point x="452" y="730" type="line"/>
			<point x="332" y="158" type="line"/>
			<point x="298" y="158" type="line"/>
			<point x="178" y="730" type="line"/>
		</contour>
	</outline>
</glyph>
<glyph name="a" format="2">
	<advance width="574"/>
	<unicode hex="0061"/>
	<outline>
		<contour>
			<point x="505" y="282" type="line"/>
			<point x="505" y="416"/>
			<point x="409" y="510"/>
			<point x="272" y="510" type="curve"/>
			<point x="183" y="510"/>
			<point x="125" y="501"/>
			<point x="64" y="478" type="curve"/>
			<point x="64" y="395" type="line"/>
			<point x="396" y="395" type="line"/>
			<point x="396" y="288" type="line"/>
			<point x="394" y="0" type="line"/>
			<point x="505" y="0" type="line"/>
		</contour>
		<contour>
			<point x="484" y="199" type="curve" smooth="yes"/>
			<point x="488" y="220"/>
			<point x="490" y="231"/>
			<point x="490" y="247" type="curve"/>
			<point x="484" y="244" type="line"/>
			<point x="484" y="295" type="line"/>
			<point x="253" y="295" type="line" smooth="yes"/>
			<point x="125" y="295"/>
			<point x="46" y="267"/>
			<point x="46" y="152" type="curve" smooth="yes"/>
			<point x="46" y="37"/>
			<point x="109" y="-10"/>
			<point x="206" y="-10" type="curve" smooth="yes"/>
			<point x="310" y="-10"/>
			<point x="459" y="68"/>
		</contour>
		<contour>
			<point x="140" y="105" type="line"/>
			<point x="140" y="148" type="line" smooth="yes"/>
			<point x="140" y="185"/>
			<point x="167" y="210"/>
			<point x="229" y="210" type="curve" smooth="yes"/>
			<point x="396" y="210" type="line"/>
			<point x="396" y="137"/>
			<point x="365" y="105"/>
			<point x="295" y="105" type="curve" smooth="yes"/>
		</contour>
	</outline>
</glyph>
<glyph name="c" format="2">
	<advance width="600"/>
	<unicode hex="0063"/>
	<outline>
		<contour>
			<point x="76" y="242" type="curve" smooth="yes"/>
			<point x="76" y="419"/>
			<point x="181" y="510"/>
			<point x="332" y="510" type="curve" smooth="yes"/>
			<point x="470" y="510"/>
			<point x="540" y="434"/>
			<point x="540" y="303" type="curve"/>
			<point x="400" y="303" type="line"/>
			<point x="407" y="387" type="line"/>
			<point x="298" y="387" type="line" smooth="yes"/>
			<point x="232" y="387"/>
			<point x="202" y="360"/>
			<point x="202" y="296" type="curve" smooth="yes"/>
			<point x="202" y="112" type="line"/>
			<point x="501" y="112" type="line"/>
			<point x="521" y="52" type="line"/>
			<point x="489" y="11"/>
			<point x="411" y="-10"/>
			<point x="333" y="-10" type="curve" smooth="yes"/>
			<point x="155" y="-10"/>
			<point x="76" y="91"/>
		</contour>
	</outline>
</glyph>
<glyph name="d" format="2">
	<advance width="600"/>
	<unicode hex="0064"/>
	<outline>
		<contour>
			<point x="414" y="112" type="curve"/>
			<point x="362" y="112" type="line"/>
			<point x="229" y="112"/>
			<point x="157" y="105"/>
			<point x="157" y="213" type="curve"/>
			<point x="157" y="386" type="line"/>
			<point x="184" y="386" type="line"/>
			<point x="300" y="386"/>
			<point x="385" y="388"/>
			<point x="385" y="314" type="curve"/>
			<point x="385" y="219" type="line"/>
			<point x="451" y="219" type="line"/>
			<point x="451" y="399"/>
			<point x="417" y="508"/>
			<point x="233" y="508" type="curve"/>
			<point x="129" y="508"/>
			<point x="29" y="424"/>
			<point x="29" y="245" type="curve"/>
			<point x="29" y="80"/>
			<point x="129" y="-9"/>
			<point x="233" y="-9" type="curve"/>
			<point x="368" y="-9"/>
			<point x="414" y="80"/>
		</contour>
		<contour>
			<point x="501" y="780" type="line"/>
			<point x="385" y="780" type="line"/>
			<point x="385" y="112" type="line"/>
			<point x="501" y="112" type="line"/>
		</contour>
		<contour>
			<point x="385" y="112" type="line"/>
			<point x="415" y="0" type="line"/>
			<point x="591" y="0" type="line"/>
			<point x="591" y="112" type="line"/>
		</contour>
	</outline>
</glyph>
<glyph name="g" format="2">
	<advance width="575"/>
	<unicode hex="0067"/>
	<outline>
		<contour>
			<point x="271" y="176" type="line"/>
			<point x="322" y="176" type="line" smooth="yes"/>
			<point x="461" y="176"/>
			<point x="526" y="216"/>
			<point x="528" y="343" type="curve" smooth="yes"/>
			<point x="531" y="593" type="line"/>
			<point x="416" y="593" type="line"/>
			<point x="416" y="359" type="line"/>
			<point x="439" y="438" type="line"/>
			<point x="401" y="438" type="line"/>
			<point x="401" y="490"/>
			<point x="362" y="510"/>
			<point x="299" y="510" type="curve" smooth="yes"/>
			<point x="255" y="510" type="line" smooth="yes"/>
			<point x="118" y="510"/>
			<point x="49" y="474"/>
			<point x="49" y="346" type="curve" smooth="yes"/>
			<point x="49" y="210"/>
			<point x="142" y="186"/>
			<point x="271" y="186" type="curve"/>
		</contour>
		<contour>
			<point x="153" y="0" type="curve" smooth="yes"/>
			<point x="530" y="0" type="line"/>
			<point x="530" y="108" type="line"/>
			<point x="171" y="108" type="line"/>
			<point x="171" y="174"/>
			<point x="171" y="176"/>
			<point x="223" y="176" type="curve" smooth="yes"/>
			<point x="271" y="176" type="line"/>
			<point x="271" y="221" type="line"/>
			<point x="168" y="221" type="line"/>
			<point x="168" y="179" type="line"/>
			<point x="95" y="179"/>
			<point x="46" y="148"/>
			<point x="46" y="83" type="curve" smooth="yes"/>
			<point x="46" y="30"/>
			<point x="83" y="0"/>
		</contour>
		<contour>
			<point x="162" y="280" type="line"/>
			<point x="162" y="360" type="line" smooth="yes"/>
			<point x="162" y="389"/>
			<point x="178" y="405"/>
			<point x="207" y="405" type="curve" smooth="yes"/>
			<point x="416" y="405" type="line"/>
			<point x="416" y="325" type="line" smooth="yes"/>
			<point x="416" y="296"/>
			<point x="400" y="280"/>
			<point x="371" y="280" type="curve" smooth="yes"/>
		</contour>
	</outline>
</glyph>
<glyph name="m" format="2">
	<advance width="935"/>
	<unicode hex="006D"/>
	<outline>
		<contour>
			<point x="74" y="499" type="line"/>
			<point x="74" y="-1" type="line"/>
			<point x="183" y="-1" type="line"/>
			<point x="183" y="324" type="line"/>
			<point x="173" y="387" type="line"/>
			<point x="172" y="499" type="line"/>
		</contour>
		<contour>
			<point x="417" y="288" type="line"/>
			<point x="417" y="2" type="line"/>
			<point x="524" y="2" type="line"/>
			<point x="524" y="288" type="line"/>
			<point x="524" y="420"/>
			<point x="475" y="506"/>
			<point x="342" y="506" type="curve"/>
			<point x="256" y="506"/>
			<point x="205" y="458"/>
			<point x="186" y="386" type="curve"/>
			<point x="114" y="386" type="line"/>
			<point x="181" y="295" type="line"/>
			<point x="181" y="375"/>
			<point x="244" y="386"/>
			<point x="318" y="386" type="curve"/>
			<point x="427" y="386" type="line"/>
			<point x="416" y="398" type="line"/>
		</contour>
		<contour>
			<point x="759" y="288" type="line"/>
			<point x="759" y="2" type="line"/>
			<point x="866" y="2" type="line"/>
			<point x="866" y="288" type="line" smooth="yes"/>
			<point x="866" y="420"/>
			<point x="817" y="506"/>
			<point x="684" y="506" type="curve" smooth="yes"/>
			<point x="598" y="506"/>
			<point x="547" y="458"/>
			<point x="528" y="386" type="curve"/>
			<point x="456" y="386" type="line"/>
			<point x="523" y="295" type="line"/>
			<point x="523" y="375"/>
			<point x="586" y="386"/>
			<point x="660" y="386" type="curve" smooth="yes"/>
			<point x="769" y="386" type="line"/>
			<point x="758" y="398" type="line"/>
		</contour>
	</outline>
</glyph>
<glyph name="r" format="2">
	<advance width="439"/>
	<unicode hex="0072"/>
	<outline>
		<contour>
			<point x="74" y="500" type="line"/>
			<point x="74" y="0" type="line"/>
			<point x="183" y="0" type="line"/>
			<point x="183" y="325" type="line"/>
			<point x="173" y="388" type="line"/>
			<point x="173" y="500" type="line"/>
		</contour>
		<contour>
			<point x="405" y="385" type="line"/>
			<point x="405" y="504" type="line"/>
			<point x="388" y="508"/>
			<point x="370" y="510"/>
			<point x="349" y="510" type="curve" smooth="yes"/>
			<point x="260" y="510"/>
			<point x="208" y="461"/>
			<point x="188" y="388" type="curve"/>
			<point x="114" y="388" type="line"/>
			<point x="183" y="293" type="line"/>
			<point x="183" y="374"/>
			<point x="248" y="385"/>
			<point x="324" y="385" type="curve" smooth="yes"/>
		</contour>
	</outline>
</glyph>
<glyph name="w" format="2">
	<advance width="829"/>
	<unicode hex="0077"/>
	<outline>
		<contour>
			<point x="20" y="500" type="line"/>
			<point x="154" y="0" type="line"/>
			<point x="324" y="0" type="line"/>
			<point x="405" y="379" type="line"/>
			<point x="424" y="379" type="line"/>
			<point x="505" y="0" type="line"/>
			<point x="675" y="0" type="line"/>
			<point x="809" y="500" type="line"/>
			<point x="690" y="500" type="line"/>
			<point x="607" y="108" type="line"/>
			<point x="583" y="108" type="line"/>
			<point x="492" y="500" type="line"/>
			<point x="337" y="500" type="line"/>
			<point x="246" y="108" type="line"/>
			<point x="222" y="108" type="line"/>
			<point x="139" y="500" type="line"/>
		</contour>
	</outline>
</glyph>
<glyph name="B.ss01" format="2">
	<advance width="644"/>
	<outline>
		<contour>
			<point x="78" y="0" type="line"/>
			<point x="197" y="0" type="line"/>
			<point x="197" y="730" type="line"/>
			<point x="78" y="730" type="line"/>
		</contour>
		<contour>
			<point x="485" y="396" type="curve"/>
			<point x="485" y="411" type="line"/>
			<point x="573" y="415"/>
			<point x="584" y="468"/>
			<point x="584" y="555" type="curve" smooth="yes"/>
			<point x="584" y="572" type="line" smooth="yes"/>
			<point x="584" y="663"/>
			<point x="562" y="730"/>
			<point x="390" y="730" type="curve" smooth="yes"/>
			<point x="153" y="730" type="line"/>
			<point x="153" y="609" type="line"/>
			<point x="460" y="609" type="line"/>
			<point x="460" y="524" type="line" smooth="yes"/>
			<point x="460" y="452"/>
			<point x="438" y="419"/>
			<point x="323" y="419" type="curve" smooth="yes"/>
			<point x="124" y="419" type="line"/>
			<point x="124" y="313" type="line"/>
			<point x="485" y="312" type="line"/>
			<point x="485" y="224" type="line" smooth="yes"/>
			<point x="485" y="157"/>
			<point x="463" y="121"/>
			<point x="351" y="121" type="curve" smooth="yes"/>
			<point x="144" y="121" type="line"/>
			<point x="144" y="0" type="line"/>
			<point x="366" y="0" type="line" smooth="yes"/>
			<point x="542" y="0"/>
			<point x="609" y="55"/>
			<point x="609" y="201" type="curve"/>
			<point x="608" y="274" type="line" smooth="yes"/>
			<point x="607" y="382"/>
			<point x="552" y="398"/>
		</contour>
	</outline>
</glyph>
<glyph name="a.001" format="2">
	<advance width="600"/>
	<outline>
		<contour>
			<point x="521" y="319" type="line" smooth="yes"/>
			<point x="521" y="447"/>
			<point x="447" y="510"/>
			<point x="298" y="510" type="curve" smooth="yes"/>
			<point x="208" y="510"/>
			<point x="158" y="502"/>
			<point x="89" y="480" type="curve"/>
			<point x="89" y="382" type="line"/>
			<point x="147" y="395"/>
			<point x="218" y="403"/>
			<point x="283" y="403" type="curve" smooth="yes"/>
			<point x="371" y="403"/>
			<point x="410" y="386"/>
			<point x="410" y="346" type="curve" smooth="yes"/>
			<point x="410" y="0" type="line"/>
			<point x="521" y="0" type="line"/>
		</contour>
		<contour>
			<point x="500" y="199" type="curve" smooth="yes"/>
			<point x="504" y="221"/>
			<point x="506" y="232"/>
			<point x="506" y="248" type="curve"/>
			<point x="500" y="245" type="line"/>
			<point x="500" y="296" type="line"/>
			<point x="269" y="296" type="line" smooth="yes"/>
			<point x="141" y="296"/>
			<point x="62" y="267"/>
			<point x="62" y="152" type="curve" smooth="yes"/>
			<point x="62" y="37"/>
			<point x="125" y="-10"/>
			<point x="222" y="-10" type="curve" smooth="yes"/>
			<point x="326" y="-10"/>
			<point x="478" y="67"/>
		</contour>
		<contour>
			<point x="156" y="105" type="line"/>
			<point x="156" y="148" type="line" smooth="yes"/>
			<point x="156" y="185"/>
			<point x="183" y="201"/>
			<point x="245" y="201" type="curve" smooth="yes"/>
			<point x="410" y="201" type="line"/>
			<point x="410" y="139"/>
			<point x="378" y="105"/>
			<point x="321" y="105" type="curve" smooth="yes"/>
		</contour>
	</outline>
</glyph>
